<svg width="1020" height="71" viewBox="0 0 1020 71" fill="none" xmlns="http://www.w3.org/2000/svg">
<g filter="url(#filter0_b_3985_5244)">
<rect width="1020" height="71" fill="url(#paint0_radial_3985_5244)" fill-opacity="0.35"/>
<rect x="0.5" y="0.5" width="1019" height="70" stroke="url(#paint1_radial_3985_5244)"/>
<path d="M395.141 38.03L394.511 42.44L391.151 43.532L393.629 50.378H385.649L380.525 36.098H378.887L377.543 45.758L382.415 45.254L381.827 49.244L369.689 50.378L373.847 20.936H396.989L394.847 36.098H388.505L389.807 39.752L395.141 38.03ZM371.453 26.522L370.781 31.31L368.093 50.378H360.911L363.389 32.822L360.953 33.326L361.625 28.538L371.453 26.522ZM371.705 24.926L372.377 20.138L362.507 22.154L361.835 26.942L371.705 24.926ZM380.483 24.926L380.189 26.942H388.967L389.261 24.926H380.483ZM379.475 32.108H388.253L388.505 30.134H379.727L379.475 32.108ZM403.958 49.664L406.436 45.506L408.284 32.108H406.436L407.066 27.866H415.802L413.534 43.952L416.012 44.876L424.58 39.29L424.958 36.854H430.964L430.544 39.71L438.692 45.422H430.922L427.268 42.356L423.152 45.464H417.566L419.246 46.094H439.574L439.07 49.664H415.928L411.77 48.446L411.14 49.664H403.958ZM418.91 21.356H427.352L427.394 21.23L426.386 20.18H433.022L432.854 21.356H441.296L440.33 28.496H431.846L431.762 29.252H441.044L440.582 32.402H416.558L417.02 29.252H426.26L426.386 28.496H417.944L418.91 21.356ZM432.77 40.13L433.316 35.972H422.774L422.228 40.13L419.498 41.852H416.054L417.272 33.2H439.658L438.44 41.852H435.206L432.77 40.13ZM414.374 20.936L416.096 25.724H409.712L407.99 20.936H414.374ZM432.518 23.666L432.182 26.018H435.122L435.458 23.666H432.518ZM426.722 26.018L427.058 23.666H424.16L423.824 26.018H426.722ZM483.335 39.206H476.615L476.363 37.148L474.389 38.66L475.103 33.788L475.943 33.158L475.145 25.85H468.047L465.275 39.248H460.445L463.553 23.708L462.797 22.238H474.767L474.641 20.978L473.885 20.138H479.261L479.471 22.238H480.479L480.227 20.558H484.049L484.259 22.238H485.015L484.511 25.85H479.891L480.353 29.798L483.629 27.32L482.957 32.192L480.815 33.83L481.067 36.014H482.663L483.965 34.67L483.335 39.206ZM454.229 21.944L453.347 20.18H459.983L455.867 49.664H450.365L454.229 21.944ZM476.573 49.664H463.721L465.065 40.088H470.567L469.727 46.01H476.027L477.287 44.414L476.573 49.664ZM474.977 30.89L473.885 38.744H466.367L467.459 30.89H474.977ZM447.635 42.02L450.449 26.27H453.221L450.575 42.02H447.635ZM462.461 49.58H458.051L459.899 40.802H464.309L462.461 49.58ZM477.791 40.886H482.075L481.907 49.664H477.623L477.791 40.886ZM471.281 40.004H475.859L475.649 45.002H471.113L471.281 40.004ZM475.019 27.026L474.641 29.924H467.837L468.215 27.026H475.019ZM458.639 34.208L459.773 26.27H462.209L461.117 34.208H458.639ZM471.071 36.14L471.449 33.494H470.189L469.811 36.14H471.071ZM497.402 24.674L497.864 21.482L496.856 20.18H504.794L504.164 24.674H505.676L505.088 28.664H503.576L502.862 33.956L504.458 33.536L503.828 37.946L502.232 38.366L500.93 47.606C500.79 48.418 500.412 49.09 499.796 49.622C499.18 50.126 498.48 50.378 497.696 50.378H491.06L494.336 46.598L495.218 40.214L492.32 40.97L492.95 36.602L495.848 35.846L496.856 28.664H494L494.588 24.674H497.402ZM514.916 50.378L519.2 20.18H524.576L520.964 45.8H524.996L526.802 44.162L525.92 50.378H514.916ZM509.834 50.294H503.87L509.456 39.836L512.018 21.482L510.8 20.18H517.898L515.126 39.92L509.834 50.294ZM523.232 42.398L523.316 33.158H527.054L526.928 42.398H523.232ZM503.492 42.44L506.054 33.158H509.708L507.146 42.44H503.492ZM506.348 31.436L506.852 23.288H510.548L510.044 31.436H506.348ZM523.61 31.436L525.332 23.288H528.902L527.18 31.436H523.61ZM541.96 33.578L543.64 21.818L542.338 20.222H550.864L550.234 24.716H555.232L554.686 28.622H549.646L548.974 33.578H553.72L551.494 49.454H535.282L537.508 33.578H541.96ZM558.256 28.496L557.458 21.734L556.114 20.138H563.926L564.892 27.782L572.032 27.026L571.444 31.226L565.396 31.856L565.984 36.728L571.066 33.746L570.352 38.954L566.53 41.18L567.118 45.674H568.63L570.478 44.078L569.638 49.958H560.86L560.23 44.834L553.048 49.034L553.804 43.826L559.684 40.382L558.76 32.57L555.232 32.948L555.82 28.748L558.256 28.496ZM545.866 45.674L547.042 37.4H543.094L541.918 45.674H545.866ZM566.488 25.808L565.648 20.978H571.318L571.99 25.808H566.488ZM606.931 20.138L604.369 24.8H614.155L613.525 29.252H601.975L599.623 33.536H614.365L613.735 37.988H605.083L612.853 50.336H603.361L596.557 39.164L590.467 50.336H580.933L587.821 37.988H580.429L581.059 33.536H590.299L592.693 29.252H589.669L588.199 32.276H580.345L585.427 22.406L584.461 21.02H593.785L591.895 24.8H595.171L597.103 21.356L596.095 20.138H606.931ZM652.204 20.18L650.65 24.548H660.016L659.47 28.496H658.168L657.16 36.014L652.666 41.474L657.076 50.336H650.692L648.676 46.304L645.4 50.336H639.268L646.324 41.516L642.04 32.822H648.424L650.272 36.56L651.784 34.67L652.624 28.496H649.264L648.298 31.268H641.956L645.358 21.482L644.266 20.18H652.204ZM642.418 20.978L639.268 43.28H636.58L635.32 40.424L637.504 24.968H630.028L627.844 40.424L625.702 43.28H623.056L626.206 20.978H642.418ZM635.992 26.396L633.85 41.432L638.26 50.336H631.876L630.742 47.102L628.558 50.336H622.048L629.062 40.844L631.12 26.396H635.992Z" fill="#FE5D40"/>
</g>
<defs>
<filter id="filter0_b_3985_5244" x="-100" y="-100" width="1220" height="271" filterUnits="userSpaceOnUse" color-interpolation-filters="sRGB">
<feFlood flood-opacity="0" result="BackgroundImageFix"/>
<feGaussianBlur in="BackgroundImageFix" stdDeviation="50"/>
<feComposite in2="SourceAlpha" operator="in" result="effect1_backgroundBlur_3985_5244"/>
<feBlend mode="normal" in="SourceGraphic" in2="effect1_backgroundBlur_3985_5244" result="shape"/>
</filter>
<radialGradient id="paint0_radial_3985_5244" cx="0" cy="0" r="1" gradientUnits="userSpaceOnUse" gradientTransform="translate(510 35.5) scale(510 990.619)">
<stop stop-color="#AE4B49"/>
<stop offset="1" stop-color="#AE4B49" stop-opacity="0"/>
</radialGradient>
<radialGradient id="paint1_radial_3985_5244" cx="0" cy="0" r="1" gradientUnits="userSpaceOnUse" gradientTransform="translate(510 35.5) scale(510 795.693)">
<stop stop-color="#AE4B49"/>
<stop offset="1" stop-color="#AE4B49" stop-opacity="0"/>
</radialGradient>
</defs>
</svg>
