<svg width="1020" height="71" viewBox="0 0 1020 71" fill="none" xmlns="http://www.w3.org/2000/svg">
<g filter="url(#filter0_b_3278_14577)">
<rect width="1020" height="71" fill="url(#paint0_radial_3278_14577)" style="mix-blend-mode:overlay"/>
<rect x="0.5" y="0.5" width="1019" height="70" stroke="url(#paint1_radial_3278_14577)"/>
<path d="M472.119 37.022H502.485L500.679 49.832H470.313L472.119 37.022ZM471.909 26.984L472.959 24.968H471.531L471.993 21.44H474.765L475.437 20.18H480.225L479.553 21.44H489.423L488.961 24.968H477.705L476.613 27.11H478.335L478.587 25.472H484.971L484.719 27.11H488.205L487.701 30.89H484.173L484.089 31.688H487.869L487.365 35.342H483.543L483.417 36.392H476.781L476.907 35.342H470.061L470.565 31.688H477.453L477.537 30.89H471.363L471.909 26.984ZM490.431 21.02L506.181 20.348L505.677 23.876L496.689 24.338L496.311 26.312H506.265L505.719 30.134H503.619L502.779 36.098H497.109L497.949 30.134H495.639L494.589 36.098H487.911L490.431 21.02ZM478.713 42.398H494.421L494.673 40.676H478.965L478.713 42.398ZM493.833 46.598L494.043 45.002H478.335L478.125 46.598H493.833ZM531.294 46.892L531.84 43.07H525.288L525.582 40.844H523.314L524.238 34.46H548.472L547.548 40.844H545.238L544.944 43.07H539.19L538.518 47.858C538.378 48.67 538.014 49.286 537.426 49.706C536.838 50.098 536.138 50.294 535.326 50.294H527.682L531.294 46.892ZM524.238 25.094L520.71 50.336H513.486L516.804 26.648L514.452 27.11L515.166 22.238L524.91 20.222L524.238 25.094ZM548.094 26.438L547.128 33.158H525.876L526.842 26.438H548.094ZM534.822 22.112L534.864 21.86L533.478 20.306H541.332L541.08 22.112H550.194L549.774 25.136H525.876L526.296 22.112H534.822ZM528.858 39.122H542.466L542.676 37.778H529.068L528.858 39.122ZM541.332 30.68L541.584 28.958H532.554L532.302 30.68H541.332Z" fill="#F9FAFC" fill-opacity="0.35"/>
<path d="M472.119 37.022H502.485L500.679 49.832H470.313L472.119 37.022ZM471.909 26.984L472.959 24.968H471.531L471.993 21.44H474.765L475.437 20.18H480.225L479.553 21.44H489.423L488.961 24.968H477.705L476.613 27.11H478.335L478.587 25.472H484.971L484.719 27.11H488.205L487.701 30.89H484.173L484.089 31.688H487.869L487.365 35.342H483.543L483.417 36.392H476.781L476.907 35.342H470.061L470.565 31.688H477.453L477.537 30.89H471.363L471.909 26.984ZM490.431 21.02L506.181 20.348L505.677 23.876L496.689 24.338L496.311 26.312H506.265L505.719 30.134H503.619L502.779 36.098H497.109L497.949 30.134H495.639L494.589 36.098H487.911L490.431 21.02ZM478.713 42.398H494.421L494.673 40.676H478.965L478.713 42.398ZM493.833 46.598L494.043 45.002H478.335L478.125 46.598H493.833ZM531.294 46.892L531.84 43.07H525.288L525.582 40.844H523.314L524.238 34.46H548.472L547.548 40.844H545.238L544.944 43.07H539.19L538.518 47.858C538.378 48.67 538.014 49.286 537.426 49.706C536.838 50.098 536.138 50.294 535.326 50.294H527.682L531.294 46.892ZM524.238 25.094L520.71 50.336H513.486L516.804 26.648L514.452 27.11L515.166 22.238L524.91 20.222L524.238 25.094ZM548.094 26.438L547.128 33.158H525.876L526.842 26.438H548.094ZM534.822 22.112L534.864 21.86L533.478 20.306H541.332L541.08 22.112H550.194L549.774 25.136H525.876L526.296 22.112H534.822ZM528.858 39.122H542.466L542.676 37.778H529.068L528.858 39.122ZM541.332 30.68L541.584 28.958H532.554L532.302 30.68H541.332Z" fill="#545454" style="mix-blend-mode:color-dodge"/>
</g>
<defs>
<filter id="filter0_b_3278_14577" x="-100" y="-100" width="1220" height="271" filterUnits="userSpaceOnUse" color-interpolation-filters="sRGB">
<feFlood flood-opacity="0" result="BackgroundImageFix"/>
<feGaussianBlur in="BackgroundImageFix" stdDeviation="50"/>
<feComposite in2="SourceAlpha" operator="in" result="effect1_backgroundBlur_3278_14577"/>
<feBlend mode="normal" in="SourceGraphic" in2="effect1_backgroundBlur_3278_14577" result="shape"/>
</filter>
<radialGradient id="paint0_radial_3278_14577" cx="0" cy="0" r="1" gradientUnits="userSpaceOnUse" gradientTransform="translate(510 35.5) scale(510 990.619)">
<stop stop-color="#7F8596"/>
<stop offset="1" stop-color="#7F8596" stop-opacity="0"/>
</radialGradient>
<radialGradient id="paint1_radial_3278_14577" cx="0" cy="0" r="1" gradientUnits="userSpaceOnUse" gradientTransform="translate(510 35.5) scale(510 795.693)">
<stop stop-color="#7F8596"/>
<stop offset="1" stop-color="#7F8596" stop-opacity="0"/>
</radialGradient>
</defs>
</svg>
