<svg width="98" height="10" viewBox="0 0 98 10" fill="none" xmlns="http://www.w3.org/2000/svg">
<path d="M5.1416 2.58398L4.21875 3.13086C4.04622 2.83138 3.88184 2.63607 3.72559 2.54492C3.56283 2.44076 3.35286 2.38867 3.0957 2.38867C2.77995 2.38867 2.5179 2.47819 2.30957 2.65723C2.10124 2.83301 1.99707 3.05436 1.99707 3.32129C1.99707 3.68913 2.27051 3.98535 2.81738 4.20996L3.56934 4.51758C4.18132 4.76497 4.62891 5.06771 4.91211 5.42578C5.19531 5.7806 5.33691 6.2168 5.33691 6.73438C5.33691 7.42773 5.10579 8.00065 4.64355 8.45312C4.17806 8.90885 3.60026 9.13672 2.91016 9.13672C2.25586 9.13672 1.71549 8.94303 1.28906 8.55566C0.869141 8.16829 0.607096 7.62305 0.50293 6.91992L1.65527 6.66602C1.70736 7.10872 1.7985 7.41471 1.92871 7.58398C2.16309 7.90951 2.50488 8.07227 2.9541 8.07227C3.30892 8.07227 3.60352 7.95345 3.83789 7.71582C4.07227 7.47819 4.18945 7.17708 4.18945 6.8125C4.18945 6.66602 4.16829 6.53255 4.12598 6.41211C4.08691 6.28841 4.02344 6.17611 3.93555 6.0752C3.85091 5.97103 3.74023 5.875 3.60352 5.78711C3.4668 5.69596 3.30404 5.6097 3.11523 5.52832L2.3877 5.22559C1.35579 4.78939 0.839844 4.15137 0.839844 3.31152C0.839844 2.74512 1.05632 2.27148 1.48926 1.89062C1.9222 1.50651 2.46094 1.31445 3.10547 1.31445C3.97461 1.31445 4.65332 1.73763 5.1416 2.58398ZM14.9355 2.53027V9H13.7979V2.53027H12.0645V1.46094H16.6641V2.53027H14.9355ZM27.6982 7.16895H24.4707L23.6309 9H22.4053L26.1357 0.987305L29.7344 9H28.4893L27.6982 7.16895ZM27.2344 6.09961L26.1162 3.53613L24.9443 6.09961H27.2344ZM39.2354 5.78711L41.5693 9H40.1777L38.0244 5.91406H37.8193V9H36.6816V1.46094H38.0146C39.0107 1.46094 39.7301 1.64811 40.1729 2.02246C40.6611 2.43913 40.9053 2.98926 40.9053 3.67285C40.9053 4.20671 40.7523 4.66569 40.4463 5.0498C40.1403 5.43392 39.7367 5.67969 39.2354 5.78711ZM37.8193 4.92285H38.1807C39.2581 4.92285 39.7969 4.51107 39.7969 3.6875C39.7969 2.91602 39.2728 2.53027 38.2246 2.53027H37.8193V4.92285ZM59.873 2.53027V9H58.7354V2.53027H57.002V1.46094H61.6016V2.53027H59.873ZM71.1709 5.78711L73.5049 9H72.1133L69.96 5.91406H69.7549V9H68.6172V1.46094H69.9502C70.9463 1.46094 71.6657 1.64811 72.1084 2.02246C72.5967 2.43913 72.8408 2.98926 72.8408 3.67285C72.8408 4.20671 72.6878 4.66569 72.3818 5.0498C72.0758 5.43392 71.6722 5.67969 71.1709 5.78711ZM69.7549 4.92285H70.1162C71.1937 4.92285 71.7324 4.51107 71.7324 3.6875C71.7324 2.91602 71.2083 2.53027 70.1602 2.53027H69.7549V4.92285ZM84.8027 2.53027H81.7803V4.3418H84.7148V5.41113H81.7803V7.93066H84.8027V9H80.6426V1.46094H84.8027V2.53027ZM93.4346 4.46875L96.3691 1.46094H97.8877L94.4795 4.87402L97.9072 9H96.3838L93.6689 5.64551L93.4346 5.87988V9H92.2969V1.46094H93.4346V4.46875Z" fill="white" fill-opacity="0.6"/>
</svg>
