<svg width="1020" height="71" viewBox="0 0 1020 71" fill="none" xmlns="http://www.w3.org/2000/svg">
<g filter="url(#filter0_b_3985_6407)">
<rect width="1020" height="71" fill="url(#paint0_radial_3985_6407)" fill-opacity="0.35"/>
<rect x="0.5" y="0.5" width="1019" height="70" stroke="url(#paint1_radial_3985_6407)"/>
<path d="M321.305 29.546L321.725 26.606H317.273L317.819 22.658H322.271L322.397 21.734L321.053 20.138H330.629L330.251 22.658H337.307L337.433 21.734L336.089 20.138H345.665L345.287 22.658H349.739L349.193 26.606H344.741L344.321 29.546H350.369L349.823 33.536H345.791L348.941 39.584H340.667L337.517 33.536H327.101L322.103 39.584H313.955L318.953 33.536H314.711L315.257 29.546H321.305ZM322.019 50.378L325.673 47.144L327.353 35.384H334.619L332.939 47.27C332.827 48.054 332.505 48.768 331.973 49.412C331.441 50.056 330.769 50.378 329.957 50.378H322.019ZM324.623 40.466L320.465 48.446H313.451L317.903 40.466H324.623ZM340.289 40.382L341.171 48.404H335.417L334.577 40.382H340.289ZM347.177 40.382L348.059 48.404H342.347L341.507 40.382H347.177ZM329.285 29.546H336.341L336.761 26.606H329.705L329.285 29.546ZM371.828 21.692L370.526 20.18H381.782L381.572 21.692H393.878L393.332 24.884H381.11L380.984 25.64H392.45L391.988 28.916H360.194L360.656 25.64H371.366L371.45 24.884H359.942L360.488 21.692H371.828ZM390.056 42.398L389.048 49.496H357.338L358.346 42.398H390.056ZM391.022 29.63L390.14 36.056H359.984L360.866 29.63H391.022ZM371.072 38.366H378.128L378.926 36.644H386.906L386.108 38.366H391.484L391.022 41.684H357.506L357.968 38.366H363.092L362.798 36.644H370.778L371.072 38.366ZM381.026 46.682L381.236 45.212H366.326L366.116 46.682H381.026ZM382.328 33.326L382.538 31.94H368.762L368.552 33.326H382.328ZM412.229 24.926L408.617 50.378H401.015L404.417 26.48L401.939 26.942L402.611 22.154L412.901 20.138L412.229 24.926ZM425.795 47.606C425.655 48.418 425.263 49.09 424.619 49.622C424.003 50.126 423.289 50.378 422.477 50.378H414.581L418.361 46.472L420.797 28.916H428.399L425.795 47.606ZM415.337 21.188L414.497 20.138H422.057L421.091 23.33H437.555L435.875 29.714H429.491L430.121 27.32H419.915L418.991 30.512H412.607L415.337 21.188ZM434.741 32.108L434.195 47.312H429.029L429.533 32.108H434.741ZM418.781 32.108L415.043 47.27H409.877L413.615 32.108H418.781ZM454.94 51.47H450.152L453.092 42.65H458.678L454.94 51.47ZM502.736 46.472L504.29 35.3H501.182L498.158 50.378H490.976L495.974 25.64L494.672 24.128H510.716L510.002 21.524L508.826 20.138H516.806L517.898 24.128H528.986L528.44 28.118H519.032L521.426 36.77L526.844 33.704L526.088 39.29L522.686 41.222L523.946 45.674H525.164L527.012 44.078L526.088 50.378H518.108L516.512 44.666L510.464 48.068L511.262 42.482L515.252 40.256L511.85 28.118H502.652L501.98 31.31H511.22L509.288 45.212C509.148 46.024 508.77 46.71 508.154 47.27C507.538 47.802 506.824 48.068 506.012 48.068H500.888L502.736 46.472ZM527.516 23.33H519.536L519.116 20.558H527.096L527.516 23.33ZM554.602 29H552.922L553.51 24.926H555.862L556.912 21.566L555.652 20.138H564.22L562.75 24.926H572.452L569.26 47.606C569.12 48.418 568.742 49.076 568.126 49.58C567.51 50.084 566.796 50.336 565.984 50.336H558.76L562.456 46.514L564.934 29H561.49L554.938 50.336H547.966L554.602 29ZM539.062 42.65L541.372 26.27H538.012L538.6 22.112H552.502L551.914 26.27H548.512L546.496 40.55L549.982 39.584L549.268 44.498L534.862 48.53L535.534 43.616L539.062 42.65ZM578.623 49.664L580.765 45.674L582.781 31.436H581.143L581.689 27.446H590.509L588.199 43.952L593.953 45.59H613.483L612.937 49.664H590.593L586.477 48.446L585.805 49.664H578.623ZM599.749 43.952L603.487 40.004L605.125 28.118H592.021L592.567 24.128H605.713L606.091 21.356L605.083 20.18H613.819L613.273 24.128H616.087L615.541 28.118H612.685L610.879 41.096C610.767 41.908 610.403 42.594 609.787 43.154C609.171 43.686 608.457 43.952 607.645 43.952H599.749ZM601.135 37.946H594.037L592.735 29.714H599.833L601.135 37.946ZM589.039 20.936L590.719 25.934H584.335L582.655 20.936H589.039ZM638.512 35.3L639.31 29.336H628.18L628.726 25.346H634.396L632.506 21.482L630.994 20.138H639.016L641.578 25.346H646.114L650.062 20.138H657.37L653.254 25.346H659.05L658.504 29.336H647.29L646.492 35.3H659.26L658.714 39.29H646.828L657.916 50.378H648.34L641.494 43.574L633.178 50.378H622.804L637.084 39.29H625.198L625.744 35.3H638.512ZM679.039 41.6H672.655L675.259 23.708H681.643L679.039 41.6ZM678.283 47.48H671.899L672.445 43.49H678.829L678.283 47.48Z" fill="#F9FAFC" fill-opacity="0.35"/>
<path d="M321.305 29.546L321.725 26.606H317.273L317.819 22.658H322.271L322.397 21.734L321.053 20.138H330.629L330.251 22.658H337.307L337.433 21.734L336.089 20.138H345.665L345.287 22.658H349.739L349.193 26.606H344.741L344.321 29.546H350.369L349.823 33.536H345.791L348.941 39.584H340.667L337.517 33.536H327.101L322.103 39.584H313.955L318.953 33.536H314.711L315.257 29.546H321.305ZM322.019 50.378L325.673 47.144L327.353 35.384H334.619L332.939 47.27C332.827 48.054 332.505 48.768 331.973 49.412C331.441 50.056 330.769 50.378 329.957 50.378H322.019ZM324.623 40.466L320.465 48.446H313.451L317.903 40.466H324.623ZM340.289 40.382L341.171 48.404H335.417L334.577 40.382H340.289ZM347.177 40.382L348.059 48.404H342.347L341.507 40.382H347.177ZM329.285 29.546H336.341L336.761 26.606H329.705L329.285 29.546ZM371.828 21.692L370.526 20.18H381.782L381.572 21.692H393.878L393.332 24.884H381.11L380.984 25.64H392.45L391.988 28.916H360.194L360.656 25.64H371.366L371.45 24.884H359.942L360.488 21.692H371.828ZM390.056 42.398L389.048 49.496H357.338L358.346 42.398H390.056ZM391.022 29.63L390.14 36.056H359.984L360.866 29.63H391.022ZM371.072 38.366H378.128L378.926 36.644H386.906L386.108 38.366H391.484L391.022 41.684H357.506L357.968 38.366H363.092L362.798 36.644H370.778L371.072 38.366ZM381.026 46.682L381.236 45.212H366.326L366.116 46.682H381.026ZM382.328 33.326L382.538 31.94H368.762L368.552 33.326H382.328ZM412.229 24.926L408.617 50.378H401.015L404.417 26.48L401.939 26.942L402.611 22.154L412.901 20.138L412.229 24.926ZM425.795 47.606C425.655 48.418 425.263 49.09 424.619 49.622C424.003 50.126 423.289 50.378 422.477 50.378H414.581L418.361 46.472L420.797 28.916H428.399L425.795 47.606ZM415.337 21.188L414.497 20.138H422.057L421.091 23.33H437.555L435.875 29.714H429.491L430.121 27.32H419.915L418.991 30.512H412.607L415.337 21.188ZM434.741 32.108L434.195 47.312H429.029L429.533 32.108H434.741ZM418.781 32.108L415.043 47.27H409.877L413.615 32.108H418.781ZM454.94 51.47H450.152L453.092 42.65H458.678L454.94 51.47ZM502.736 46.472L504.29 35.3H501.182L498.158 50.378H490.976L495.974 25.64L494.672 24.128H510.716L510.002 21.524L508.826 20.138H516.806L517.898 24.128H528.986L528.44 28.118H519.032L521.426 36.77L526.844 33.704L526.088 39.29L522.686 41.222L523.946 45.674H525.164L527.012 44.078L526.088 50.378H518.108L516.512 44.666L510.464 48.068L511.262 42.482L515.252 40.256L511.85 28.118H502.652L501.98 31.31H511.22L509.288 45.212C509.148 46.024 508.77 46.71 508.154 47.27C507.538 47.802 506.824 48.068 506.012 48.068H500.888L502.736 46.472ZM527.516 23.33H519.536L519.116 20.558H527.096L527.516 23.33ZM554.602 29H552.922L553.51 24.926H555.862L556.912 21.566L555.652 20.138H564.22L562.75 24.926H572.452L569.26 47.606C569.12 48.418 568.742 49.076 568.126 49.58C567.51 50.084 566.796 50.336 565.984 50.336H558.76L562.456 46.514L564.934 29H561.49L554.938 50.336H547.966L554.602 29ZM539.062 42.65L541.372 26.27H538.012L538.6 22.112H552.502L551.914 26.27H548.512L546.496 40.55L549.982 39.584L549.268 44.498L534.862 48.53L535.534 43.616L539.062 42.65ZM578.623 49.664L580.765 45.674L582.781 31.436H581.143L581.689 27.446H590.509L588.199 43.952L593.953 45.59H613.483L612.937 49.664H590.593L586.477 48.446L585.805 49.664H578.623ZM599.749 43.952L603.487 40.004L605.125 28.118H592.021L592.567 24.128H605.713L606.091 21.356L605.083 20.18H613.819L613.273 24.128H616.087L615.541 28.118H612.685L610.879 41.096C610.767 41.908 610.403 42.594 609.787 43.154C609.171 43.686 608.457 43.952 607.645 43.952H599.749ZM601.135 37.946H594.037L592.735 29.714H599.833L601.135 37.946ZM589.039 20.936L590.719 25.934H584.335L582.655 20.936H589.039ZM638.512 35.3L639.31 29.336H628.18L628.726 25.346H634.396L632.506 21.482L630.994 20.138H639.016L641.578 25.346H646.114L650.062 20.138H657.37L653.254 25.346H659.05L658.504 29.336H647.29L646.492 35.3H659.26L658.714 39.29H646.828L657.916 50.378H648.34L641.494 43.574L633.178 50.378H622.804L637.084 39.29H625.198L625.744 35.3H638.512ZM679.039 41.6H672.655L675.259 23.708H681.643L679.039 41.6ZM678.283 47.48H671.899L672.445 43.49H678.829L678.283 47.48Z" fill="#30B28F"/>
</g>
<defs>
<filter id="filter0_b_3985_6407" x="-100" y="-100" width="1220" height="271" filterUnits="userSpaceOnUse" color-interpolation-filters="sRGB">
<feFlood flood-opacity="0" result="BackgroundImageFix"/>
<feGaussianBlur in="BackgroundImageFix" stdDeviation="50"/>
<feComposite in2="SourceAlpha" operator="in" result="effect1_backgroundBlur_3985_6407"/>
<feBlend mode="normal" in="SourceGraphic" in2="effect1_backgroundBlur_3985_6407" result="shape"/>
</filter>
<radialGradient id="paint0_radial_3985_6407" cx="0" cy="0" r="1" gradientUnits="userSpaceOnUse" gradientTransform="translate(510 35.5) scale(510 990.619)">
<stop stop-color="#0F7255"/>
<stop offset="1" stop-color="#30B28C" stop-opacity="0"/>
</radialGradient>
<radialGradient id="paint1_radial_3985_6407" cx="0" cy="0" r="1" gradientUnits="userSpaceOnUse" gradientTransform="translate(510 35.5) scale(510 795.693)">
<stop stop-color="#30B28C"/>
<stop offset="1" stop-color="#30B28C" stop-opacity="0"/>
</radialGradient>
</defs>
</svg>
